HIERARCHY
ROOT hip
{
  OFFSET 0 0 0
  CHANNELS 6 Xposition Yposition Zposition Zrotation Yrotation Xrotation
  JOINT abdomen
  {
    OFFSET 0 20.6881 -0.73152
    CHANNELS 3 Zrotation Xrotation Yrotation
    JOINT chest
    {
      OFFSET 0 11.7043 -0.48768
      CHANNELS 3 Zrotation Xrotation Yrotation
      JOINT neck
      {
        OFFSET 0 22.1894 -2.19456
        CHANNELS 3 Zrotation Xrotation Yrotation
        JOINT head
        {
          OFFSET -0.24384 7.07133 1.2192
          CHANNELS 3 Zrotation Xrotation Yrotation
          JOINT leftEye
          {
            OFFSET 4.14528 8.04674 8.04672
            CHANNELS 3 Zrotation Xrotation Yrotation
            End Site
            {
              OFFSET 1 0 0
            }
          }
          JOINT rightEye
          {
            OFFSET -3.6576 8.04674 8.04672
            CHANNELS 3 Zrotation Xrotation Yrotation
            End Site
            {
              OFFSET 1 0 0
            }
          }
        }
      }
      JOINT rCollar
      {
        OFFSET -2.68224 19.2634 -4.8768
        CHANNELS 3 Zrotation Xrotation Yrotation
        JOINT rShldr
        {
          OFFSET -8.77824 -1.95073 1.46304
          CHANNELS 3 Zrotation Xrotation Yrotation
          JOINT rForeArm
          {
            OFFSET -28.1742 -1.7115 0.48768
            CHANNELS 3 Zrotation Xrotation Yrotation
            JOINT rHand
            {
              OFFSET -22.5879 0.773209 7.07136
              CHANNELS 3 Zrotation Xrotation Yrotation
              JOINT rThumb1
              {
                OFFSET -1.2192 -0.487915 3.41376
                CHANNELS 3 Zrotation Xrotation Yrotation
                JOINT rThumb2
                {
                  OFFSET -3.37035 -0.52449 3.41376
                  CHANNELS 3 Zrotation Xrotation Yrotation
                  End Site
                  {
                    OFFSET -1.78271 -1.18214 1.43049
                  }
                }
              }
              JOINT rIndex1
              {
                OFFSET -7.75947 0.938293 5.60832
                CHANNELS 3 Zrotation Xrotation Yrotation
                JOINT rIndex2
                {
                  OFFSET -2.54057 -0.884171 1.56538
                  CHANNELS 3 Zrotation Xrotation Yrotation
                  End Site
                  {
                    OFFSET -1.62519 -0.234802 1.16502
                  }
                }
              }
              JOINT rMid1
              {
                OFFSET -8.24714 1.18213 3.41376
                CHANNELS 3 Zrotation Xrotation Yrotation
                JOINT rMid2
                {
                  OFFSET -3.10165 -0.590103 1.0647
                  CHANNELS 3 Zrotation Xrotation Yrotation
                  End Site
                  {
                    OFFSET -2.48547 -0.328903 0.83742
                  }
                }
              }
              JOINT rRing1
              {
                OFFSET -8.82822 0.546677 1.51678
                CHANNELS 3 Zrotation Xrotation Yrotation
                JOINT rRing2
                {
                  OFFSET -2.60934 -0.819778 -0.0198488
                  CHANNELS 3 Zrotation Xrotation Yrotation
                  End Site
                  {
                    OFFSET -2.33842 -0.294052 0.168128
                  }
                }
              }
              JOINT rPinky1
              {
                OFFSET -8.27202 -0.0477905 -0.4584
                CHANNELS 3 Zrotation Xrotation Yrotation
                JOINT rPinky2
                {
                  OFFSET -1.82734 -0.647385 -0.700984
                  CHANNELS 3 Zrotation Xrotation Yrotation
                  End Site
                  {
                    OFFSET -1.69225 -0.51767 -0.607171
                  }
                }
              }
            }
          }
        }
      }
      JOINT lCollar
      {
        OFFSET 2.68224 19.2634 -4.8768
        CHANNELS 3 Zrotation Xrotation Yrotation
        JOINT lShldr
        {
          OFFSET 8.77824 -1.95073 1.46304
          CHANNELS 3 Zrotation Xrotation Yrotation
          JOINT lForeArm
          {
            OFFSET 28.1742 -1.7115 0.48768
            CHANNELS 3 Zrotation Xrotation Yrotation
            JOINT lHand
            {
              OFFSET 22.5879 0.773209 7.07136
              CHANNELS 3 Zrotation Xrotation Yrotation
              JOINT lThumb1
              {
                OFFSET 1.2192 -0.487915 3.41376
                CHANNELS 3 Zrotation Xrotation Yrotation
                JOINT lThumb2
                {
                  OFFSET 3.37035 -0.52449 3.41376
                  CHANNELS 3 Zrotation Xrotation Yrotation
                  End Site
                  {
                    OFFSET 1.78271 -1.18214 1.43049
                  }
                }
              }
              JOINT lIndex1
              {
                OFFSET 7.75947 0.938293 5.60832
                CHANNELS 3 Zrotation Xrotation Yrotation
                JOINT lIndex2
                {
                  OFFSET 2.54057 -0.884171 1.56538
                  CHANNELS 3 Zrotation Xrotation Yrotation
                  End Site
                  {
                    OFFSET 1.62519 -0.234802 1.16502
                  }
                }
              }
              JOINT lMid1
              {
                OFFSET 8.24714 1.18213 3.41376
                CHANNELS 3 Zrotation Xrotation Yrotation
                JOINT lMid2
                {
                  OFFSET 3.10165 -0.590103 1.0647
                  CHANNELS 3 Zrotation Xrotation Yrotation
                  End Site
                  {
                    OFFSET 2.48547 -0.328903 0.83742
                  }
                }
              }
              JOINT lRing1
              {
                OFFSET 8.82822 0.546677 1.51678
                CHANNELS 3 Zrotation Xrotation Yrotation
                JOINT lRing2
                {
                  OFFSET 2.60934 -0.819778 -0.0198488
                  CHANNELS 3 Zrotation Xrotation Yrotation
                  End Site
                  {
                    OFFSET 2.33842 -0.294052 0.168128
                  }
                }
              }
              JOINT lPinky1
              {
                OFFSET 8.27202 -0.0477905 -0.4584
                CHANNELS 3 Zrotation Xrotation Yrotation
                JOINT lPinky2
                {
                  OFFSET 1.82734 -0.647385 -0.700984
                  CHANNELS 3 Zrotation Xrotation Yrotation
                  End Site
                  {
                    OFFSET 1.69225 -0.51767 -0.607171
                  }
                }
              }
            }
          }
        }
      }
    }
  }
  JOINT rButtock
  {
    OFFSET -8.77824 4.35084 1.2192
    CHANNELS 3 Zrotation Xrotation Yrotation
    JOINT rThigh
    {
      OFFSET 0 -1.70687 -2.19456
      CHANNELS 3 Zrotation Xrotation Yrotation
      JOINT rShin
      {
        OFFSET 0 -36.8199 0.73152
        CHANNELS 3 Zrotation Xrotation Yrotation
        JOINT rFoot
        {
          OFFSET 0.73152 -45.1104 -5.12064
          CHANNELS 3 Zrotation Xrotation Yrotation
          End Site
          {
            OFFSET -1.1221 -3.69964 12.103
          }
        }
      }
    }
  }
  JOINT lButtock
  {
    OFFSET 8.77824 4.35084 1.2192
    CHANNELS 3 Zrotation Xrotation Yrotation
    JOINT lThigh
    {
      OFFSET 0 -1.70687 -2.19456
      CHANNELS 3 Zrotation Xrotation Yrotation
      JOINT lShin
      {
        OFFSET 0 -36.8199 0.73152
        CHANNELS 3 Zrotation Xrotation Yrotation
        JOINT lFoot
        {
          OFFSET -0.73152 -45.1104 -5.12064
          CHANNELS 3 Zrotation Xrotation Yrotation
          End Site
          {
            OFFSET 1.1221 -3.69964 12.103
          }
        }
      }
    }
  }
}
MOTION
Frames:	9
Frame Time:	0.00833333
-1.34956 84.9173 -122.048 0.0 0.0 0.0 -0.140625 -0.000295017 -0.00400525 -0.0387669 -0.000394552 -0.00671563 1.84672e-15 -7.95139e-16 -2.48481e-17 5.53491e-15 3.18055e-15 -6.52262e-17 -0.0 0.0 0.0 -0.0 0.0 0.0 9.42931e-16 -1.94126e-19 1.98785e-16 2.14486e-14 -1.30452e-16 5.96354e-16 3.31573e-13 -1.02175e-13 6.36111e-15 3.82754e-12 9.10931e-14 -6.36111e-14 9.0188e-12 -2.50484e-14 -1.01778e-13 1.55708e-11 -5.08889e-14 -1.79701e-13 9.02681e-12 -2.14687e-14 -1.04958e-13 7.73091 5.47488 0.417314 9.0207e-12 -2.37548e-14 -9.85972e-14 2.90554 0.965183 0.102902 9.03018e-12 -2.46493e-14 -9.54166e-14 10.2786 0.731801 0.0259123 9.02025e-12 -2.38542e-14 -8.90555e-14 2.22167 -0.733487 -0.20892 8.46191e-16 -3.88251e-19 -1.98785e-16 1.75262e-14 -4.96962e-17 -9.93923e-16 3.34406e-13 9.93923e-14 -1.59028e-14 3.82329e-12 -1.01306e-13 -1.59028e-14 9.02188e-12 -4.18367e-15 -8.90555e-14 1.55863e-11 -1.27222e-14 -1.49486e-13 9.01449e-12 -1.59028e-15 -8.5875e-14 -7.73091 5.47488 -0.417314 9.0213e-12 -3.57812e-15 -9.85972e-14 -2.90554 0.965183 -0.102902 9.00715e-12 -3.27995e-15 -9.30312e-14 -10.2786 0.731801 -0.0259123 9.02264e-12 -5.1684e-15 -1.08139e-13 -2.22167 -0.733487 0.20892 -2.03217e-16 0.0 -3.88251e-19 0.415451 -2.89234 -0.0363694 -0.00657578 -0.313961 -0.0578453 -0.521683 3.20536 0.125418 2.03217e-16 0.0 3.88251e-19 -0.629354 -3.43714 0.0497312 0.0049779 0.672914 0.0432306 0.523145 2.76331 -0.116511
2.58098 83.6021 -124.808 -0.9067 47.5719 0.7246 1.5153 1.23246 6.14684 -1.02725 -0.75052 1.73508 4.41246 5.57131 5.53367 -6.52828 -4.9697 10.6623 -0.0 0.0 0.0 -0.0 0.0 0.0 1.92419e-14 -7.81085e-14 -3.47671e-14 20.7474 0.492182 -1.22769 -3.46769 -1.45086 5.54408 0.0046124 -1.50664 -0.21148 -9.45087e-11 3.29133e-10 -8.96692e-11 -1.62792e-10 5.69425e-10 -1.55193e-10 -9.45012e-11 3.29135e-10 -8.9675e-11 7.73091 5.47488 0.417314 -9.4506e-11 3.29134e-10 -8.96651e-11 2.90554 0.965183 0.102902 -9.44985e-11 3.29135e-10 -8.96636e-11 10.2786 0.731801 0.0259123 -9.45096e-11 3.29136e-10 -8.96562e-11 2.22167 -0.733487 -0.20892 1.9176e-14 -7.8107e-14 -3.50672e-14 -20.2718 6.67195 0.378402 4.71799 -2.25313 -7.24659 -0.0101699 -2.23909 0.313818 -7.46458e-11 -1.62295e-10 -2.01834e-10 -1.27225e-10 -2.81945e-10 -3.50142e-10 -7.46517e-11 -1.62289e-10 -2.01829e-10 -7.73091 5.47488 -0.417314 -7.46455e-11 -1.62291e-10 -2.01842e-10 -2.90554 0.965183 -0.102902 -7.46573e-11 -1.62291e-10 -2.01838e-10 -10.2786 0.731801 -0.0259123 -7.4645e-11 -1.62294e-10 -2.01851e-10 -2.22167 -0.733487 0.20892 -2.03217e-16 0.0 -3.88251e-19 0.473347 -2.17541 -4.36168 0.0222734 5.54466 0.102903 -1.84672 -1.51894 -11.7913 2.03217e-16 0.0 3.88251e-19 0.770102 -8.17976 -4.22265 0.012592 7.77456 -0.0366502 0.241051 0.0901403 -2.77003
2.57301 83.6014 -124.805 -0.9022 47.4877 0.7454 2.98097 2.48814 12.6572 -2.02117 -1.54036 3.57714 7.89346 11.2868 11.5564 -11.4429 -9.64089 22.1823 -0.0 0.0 0.0 -0.0 0.0 0.0 3.8502e-14 -1.55992e-13 -7.39355e-14 42.6978 1.01719 -2.52577 -6.82957 -2.93919 11.416 -0.00261848 -3.09745 -0.435271 -2.02647e-10 7.07813e-10 -1.93567e-10 -3.49048e-10 1.22462e-09 -3.35004e-10 -2.0264e-10 7.07814e-10 -1.93576e-10 7.73091 5.47488 0.417314 -2.02644e-10 7.07813e-10 -1.93562e-10 2.90554 0.965183 0.102902 -2.02638e-10 7.07817e-10 -1.93562e-10 10.2786 0.731801 0.0259123 -2.02651e-10 7.07817e-10 -1.93554e-10 2.22167 -0.733487 -0.20892 3.84675e-14 -1.55988e-13 -7.41311e-14 -41.7994 13.7259 0.79642 9.0967 -4.5191 -14.9515 0.00586482 -4.61634 0.648632 -1.55298e-10 -3.49365e-10 -4.31591e-10 -2.64591e-10 -6.06877e-10 -7.48672e-10 -1.55302e-10 -3.49355e-10 -4.31585e-10 -7.73091 5.47488 -0.417314 -1.55297e-10 -3.49357e-10 -4.31597e-10 -2.90554 0.965183 -0.102902 -1.55306e-10 -3.49357e-10 -4.31594e-10 -10.2786 0.731801 -0.0259123 -1.55297e-10 -3.49361e-10 -4.31605e-10 -2.22167 -0.733487 0.20892 -2.03217e-16 0.0 -3.88251e-19 0.651242 -1.41265 -8.93237 0.0164193 11.7386 0.277704 -5.33002 -5.9928 -24.5246 2.03217e-16 0.0 3.88251e-19 1.46307 -13.0857 -8.88426 0.0428176 15.282 -0.124797 -0.326615 -2.722 -5.58536
2.56314 83.6031 -124.793 -0.9457 47.3938 0.7066 4.04709 3.52804 18.4805 -2.86752 -2.24247 5.22225 9.94911 16.0791 17.2156 -14.2424 -12.8407 32.7834 -0.0 0.0 0.0 -0.0 0.0 0.0 5.58399e-14 -2.34325e-13 -1.04699e-13 62.3055 1.47383 -3.68415 -9.57199 -4.18984 16.6727 -0.019617 -4.51968 -0.6362 -3.01564e-10 9.8745e-10 -2.68804e-10 -5.19517e-10 1.70838e-09 -4.6522e-10 -3.01557e-10 9.87449e-10 -2.68815e-10 7.73091 5.47488 0.417314 -3.01559e-10 9.87449e-10 -2.68798e-10 2.90554 0.965183 0.102902 -3.01556e-10 9.87454e-10 -2.688e-10 10.2786 0.731801 0.0259123 -3.01569e-10 9.87455e-10 -2.68791e-10 2.22167 -0.733487 -0.20892 5.58357e-14 -2.3432e-13 -1.04804e-13 -61.0944 20.0123 1.19998 12.481 -6.32781 -21.8629 0.0435024 -6.71645 0.947235 -2.41981e-10 -4.86877e-10 -6.05324e-10 -4.12849e-10 -8.45808e-10 -1.05013e-09 -2.41984e-10 -4.86864e-10 -6.05317e-10 -7.73091 5.47488 -0.417314 -2.41979e-10 -4.86866e-10 -6.05329e-10 -2.90554 0.965183 -0.102902 -2.41986e-10 -4.86866e-10 -6.05327e-10 -10.2786 0.731801 -0.0259123 -2.4198e-10 -4.86871e-10 -6.05336e-10 -2.22167 -0.733487 0.20892 -2.03217e-16 0.0 -3.88251e-19 0.912002 -0.740986 -13.0041 -0.0222602 17.2614 0.442903 -10.0565 -8.97708 -36.1224 2.03217e-16 0.0 3.88251e-19 1.37893 -17.2876 -13.2467 0.090788 21.9777 -0.210708 -1.06553 -5.20362 -8.111
2.55887 83.6015 -124.787 -0.9815 47.3217 0.7053 4.65835 4.19013 22.5558 -3.44111 -2.73311 6.37162 10.7861 19.1681 21.3781 -15.436 -14.3359 40.3302 -0.0 0.0 0.0 -0.0 0.0 0.0 6.83724e-14 -3.13784e-13 -1.1445e-13 76.0107 1.76224 -4.49221 -11.3471 -5.00112 20.3532 -0.0375263 -5.52067 -0.778314 -3.77424e-10 1.01948e-09 -2.72389e-10 -6.50518e-10 1.76352e-09 -4.71449e-10 -3.77418e-10 1.01948e-09 -2.72402e-10 7.73091 5.47488 0.417314 -3.77419e-10 1.01948e-09 -2.72383e-10 2.90554 0.965183 0.102902 -3.77417e-10 1.01948e-09 -2.72386e-10 10.2786 0.731801 0.0259123 -3.7743e-10 1.01948e-09 -2.72376e-10 2.22167 -0.733487 -0.20892 6.8396e-14 -3.13779e-13 -1.145e-13 -74.6055 24.3832 1.50571 14.5521 -7.40877 -26.6718 0.0816472 -8.12451 1.14962 -3.43742e-10 -5.00495e-10 -6.38999e-10 -5.88338e-10 -8.69735e-10 -1.10889e-09 -3.43744e-10 -5.0048e-10 -6.38989e-10 -7.73091 5.47488 -0.417314 -3.43739e-10 -5.00482e-10 -6.39002e-10 -2.90554 0.965183 -0.102902 -3.43745e-10 -5.00482e-10 -6.39e-10 -10.2786 0.731801 -0.0259123 -3.4374e-10 -5.00487e-10 -6.39008e-10 -2.22167 -0.733487 0.20892 -2.03217e-16 0.0 -3.88251e-19 1.15171 -0.285343 -15.832 -0.069528 21.1069 0.565941 -14.0812 -10.2492 -44.316 2.03217e-16 0.0 3.88251e-19 0.921017 -20.076 -16.4342 0.137535 26.6442 -0.277195 -1.70748 -6.91331 -9.87137
2.55684 83.6009 -124.781 -1.0058 47.2433 0.7023 4.86205 4.43523 24.1718 -3.67966 -2.93421 6.82633 10.9869 20.3126 23.0592 -15.7428 -14.7889 43.2922 -0.0 0.0 0.0 -0.0 0.0 0.0 7.47526e-14 -4.16156e-13 -8.46827e-14 81.436 1.80752 -4.81154 -12.0145 -5.30381 21.802 -0.0461977 -5.93188 -0.83689 -4.28107e-10 5.53524e-10 -1.31e-10 -7.38755e-10 9.56524e-10 -2.26775e-10 -4.28101e-10 5.53523e-10 -1.31013e-10 7.73091 5.47488 0.417314 -4.28103e-10 5.53522e-10 -1.30994e-10 2.90554 0.965183 0.102902 -4.281e-10 5.53529e-10 -1.30997e-10 10.2786 0.731801 0.0259123 -4.28112e-10 5.5353e-10 -1.30989e-10 2.22167 -0.733487 -0.20892 7.48063e-14 -4.16153e-13 -8.47281e-14 -79.9099 26.0737 1.62051 15.2623 -7.75115 -28.4627 0.0963264 -8.54903 1.21115 -5.07569e-10 -2.82236e-10 -4.13408e-10 -8.73217e-10 -4.91409e-10 -7.18608e-10 -5.07571e-10 -2.82223e-10 -4.13396e-10 -7.73091 5.47488 -0.417314 -5.07567e-10 -2.82224e-10 -4.1341e-10 -2.90554 0.965183 -0.102902 -5.07572e-10 -2.82225e-10 -4.13409e-10 -10.2786 0.731801 -0.0259123 -5.07568e-10 -2.82229e-10 -4.13416e-10 -2.22167 -0.733487 0.20892 -2.03217e-16 0.0 -3.88251e-19 1.26478 -0.11567 -16.9161 -0.0929227 22.6039 0.615835 -15.7663 -10.5282 -47.514 2.03217e-16 0.0 3.88251e-19 0.666661 -21.126 -17.7073 0.159047 28.4701 -0.305347 -1.97954 -7.58367 -10.5229
2.55497 83.6 -124.775 -1.0296 47.1696 0.6995 4.82506 4.41438 24.0262 -3.68871 -2.93006 6.7841 10.9832 20.1971 22.8632 -15.6732 -14.8721 42.9385 -0.0 0.0 0.0 -0.0 0.0 0.0 7.6711e-14 -5.3388e-13 -2.71683e-14 80.9429 1.68005 -4.78149 -11.946 -5.27396 21.6505 -0.0457439 -5.92187 -0.835447 -4.60468e-10 -2.60924e-10 1.11817e-10 -7.95851e-10 -4.53796e-10 1.93433e-10 -4.60463e-10 -2.60923e-10 1.11803e-10 7.73091 5.47488 0.417314 -4.60465e-10 -2.60926e-10 1.11822e-10 2.90554 0.965183 0.102902 -4.60461e-10 -2.60919e-10 1.11817e-10 10.2786 0.731801 0.0259123 -4.60471e-10 -2.60918e-10 1.11825e-10 2.22167 -0.733487 -0.20892 7.67962e-14 -5.33879e-13 -2.72459e-14 -79.3264 25.8505 1.58452 15.1 -7.64346 -28.0831 0.0894751 -8.27189 1.17122 -7.1378e-10 9.88666e-11 -5.6351e-12 -1.23284e-09 1.69419e-10 -1.279e-11 -7.13783e-10 9.88765e-11 -5.62128e-12 -7.73091 5.47488 -0.417314 -7.13778e-10 9.8877e-11 -5.63674e-12 -2.90554 0.965183 -0.102902 -7.13783e-10 9.88734e-11 -5.63574e-12 -10.2786 0.731801 -0.0259123 -7.13778e-10 9.88712e-11 -5.64429e-12 -2.22167 -0.733487 0.20892 -2.03217e-16 0.0 -3.88251e-19 1.26494 -0.144636 -16.7544 -0.090199 22.4236 0.609095 -15.543 -10.4885 -47.1215 2.03217e-16 0.0 3.88251e-19 0.729698 -21.0041 -17.539 0.156275 28.2671 -0.30251 -1.93371 -7.52356 -10.3721
2.55523 83.5994 -124.77 -1.0464 47.1043 0.7018 4.69029 4.28586 23.1656 -3.59924 -2.84224 6.54033 10.8919 19.5711 21.9182 -15.4666 -14.7929 41.2593 -0.0 0.0 0.0 -0.0 0.0 0.0 7.59802e-14 -6.23602e-13 2.52818e-14 78.0775 1.49851 -4.60785 -11.5839 -5.11155 20.8601 -0.0415629 -5.74374 -0.810036 -4.74138e-10 -9.72644e-10 3.23744e-10 -8.20504e-10 -1.68613e-09 5.60142e-10 -4.74133e-10 -9.72643e-10 3.23731e-10 7.73091 5.47488 0.417314 -4.74136e-10 -9.72646e-10 3.23748e-10 2.90554 0.965183 0.102902 -4.74131e-10 -9.7264e-10 3.23744e-10 10.2786 0.731801 0.0259123 -4.74139e-10 -9.72638e-10 3.2375e-10 2.22167 -0.733487 -0.20892 7.60877e-14 -6.23605e-13 2.5161e-14 -76.3996 24.864 1.4989 14.5886 -7.35626 -26.8486 0.0755942 -7.73839 1.09443 -8.7141e-10 4.51628e-10 3.73917e-10 -1.50833e-09 7.81252e-10 6.44411e-10 -8.71414e-10 4.51634e-10 3.73932e-10 -7.73091 5.47488 -0.417314 -8.71409e-10 4.51636e-10 3.73916e-10 -2.90554 0.965183 -0.102902 -8.71414e-10 4.5163e-10 3.73916e-10 -10.2786 0.731801 -0.0259123 -8.71407e-10 4.5163e-10 3.73907e-10 -2.22167 -0.733487 0.20892 -2.03217e-16 0.0 -3.88251e-19 1.21681 -0.252652 -16.0981 -0.0770973 21.5732 0.579753 -14.5592 -10.3179 -45.2937 2.03217e-16 0.0 3.88251e-19 0.914765 -20.4125 -16.7938 0.143848 27.252 -0.287275 -1.76276 -7.17022 -9.90565
2.55669 83.5987 -124.767 -1.0572 47.0455 0.7067 4.59756 4.20586 22.6371 -3.54138 -2.79222 6.3905 10.8182 19.1777 21.3578 -15.3358 -14.731 40.2526 -0.0 0.0 0.0 -0.0 0.0 0.0 7.42927e-14 -6.41973e-13 3.98563e-14 76.3847 1.38165 -4.49627 -11.3676 -5.01492 20.3925 -0.0393207 -5.65058 -0.796748 -4.68747e-10 -1.13042e-09 3.72468e-10 -8.11413e-10 -1.95917e-09 6.44317e-10 -4.68742e-10 -1.13041e-09 3.72456e-10 7.73091 5.47488 0.417314 -4.68745e-10 -1.13042e-09 3.72472e-10 2.90554 0.965183 0.102902 -4.6874e-10 -1.13041e-09 3.72467e-10 10.2786 0.731801 0.0259123 -4.68746e-10 -1.13041e-09 3.72472e-10 2.22167 -0.733487 -0.20892 7.44032e-14 -6.41977e-13 3.97072e-14 -74.6728 24.2648 1.4644 14.2574 -7.16404 -26.0734 0.0675242 -7.39392 1.04501 -8.89495e-10 5.84863e-10 5.14846e-10 -1.54082e-09 1.01259e-09 8.88839e-10 -8.89499e-10 5.84866e-10 5.14862e-10 -7.73091 5.47488 -0.417314 -8.89494e-10 5.84869e-10 5.14846e-10 -2.90554 0.965183 -0.102902 -8.895e-10 5.84863e-10 5.14846e-10 -10.2786 0.731801 -0.0259123 -8.89492e-10 5.84863e-10 5.14836e-10 -2.22167 -0.733487 0.20892 -2.03217e-16 0.0 -3.88251e-19 1.18522 -0.320165 -15.6986 -0.0696682 21.0602 0.561999 -13.9697 -10.1909 -44.1862 2.03217e-16 0.0 3.88251e-19 1.02031 -20.0509 -16.3394 0.136714 26.6417 -0.278419 -1.66015 -6.96096 -9.61038
